<svg id="Layer_1" data-name="Layer 1" xmlns="http://www.w3.org/2000/svg" viewBox="0 0 749.17 749.69"><defs><style>.cls-1,.cls-2{fill:#fff;stroke:#fff;stroke-miterlimit:10;}.cls-2{font-size:48.63px;font-family:Arial-BoldMT, Arial;font-weight:700;}.cls-3{letter-spacing:-0.06em;}</style></defs><line class="cls-1" y1="375.1" x2="75.2" y2="375.1"/><line class="cls-1" x1="50.18" y1="562.4" x2="115.31" y2="524.8"/><line class="cls-1" x1="187.29" y1="699.5" x2="224.89" y2="634.38"/><line class="cls-1" x1="374.58" y1="749.69" x2="374.58" y2="674.49"/><line class="cls-1" x1="561.88" y1="699.5" x2="524.28" y2="634.38"/><line class="cls-1" x1="698.98" y1="562.4" x2="633.86" y2="524.8"/><line class="cls-1" x1="749.17" y1="375.1" x2="673.97" y2="375.1"/><line class="cls-1" x1="698.98" y1="187.81" x2="633.86" y2="225.41"/><line class="cls-1" x1="561.88" y1="50.7" x2="524.28" y2="115.83"/><line class="cls-1" x1="374.58" x2="374.58" y2="75.2"/><line class="cls-1" x1="335.96" y1="2.11" x2="339.89" y2="39.5"/><line class="cls-1" x1="297.19" y1="8.19" x2="305" y2="44.97"/><line class="cls-1" x1="259.26" y1="18.29" x2="270.88" y2="54.05"/><line class="cls-1" x1="222.59" y1="32.3" x2="237.89" y2="66.65"/><line class="cls-1" x1="154.64" y1="71.39" x2="176.74" y2="101.81"/><line class="cls-1" x1="124.1" y1="96.05" x2="149.26" y2="123.99"/><line class="cls-1" x1="96.3" y1="123.76" x2="124.24" y2="148.92"/><line class="cls-1" x1="71.55" y1="154.22" x2="101.97" y2="176.32"/><line class="cls-1" x1="32.25" y1="222.05" x2="66.6" y2="237.35"/><line class="cls-1" x1="18.13" y1="258.67" x2="53.89" y2="270.29"/><line class="cls-1" x1="7.91" y1="296.57" x2="44.69" y2="304.39"/><line class="cls-1" x1="1.71" y1="335.33" x2="39.1" y2="339.26"/><line class="cls-1" x1="1.59" y1="413.72" x2="38.98" y2="409.79"/><line class="cls-1" x1="7.67" y1="452.5" x2="44.45" y2="444.68"/><line class="cls-1" x1="17.77" y1="490.43" x2="53.53" y2="478.81"/><line class="cls-1" x1="31.78" y1="527.09" x2="66.13" y2="511.8"/><line class="cls-1" x1="70.87" y1="595.05" x2="101.29" y2="572.95"/><line class="cls-1" x1="95.53" y1="625.59" x2="123.47" y2="600.43"/><line class="cls-1" x1="123.24" y1="653.39" x2="148.4" y2="625.44"/><line class="cls-1" x1="153.7" y1="678.13" x2="175.8" y2="647.72"/><line class="cls-1" x1="221.53" y1="717.44" x2="236.83" y2="683.09"/><line class="cls-1" x1="258.15" y1="731.56" x2="269.77" y2="695.8"/><line class="cls-1" x1="296.05" y1="741.78" x2="303.87" y2="705"/><line class="cls-1" x1="334.81" y1="747.98" x2="338.74" y2="710.58"/><line class="cls-1" x1="413.2" y1="748.1" x2="409.27" y2="710.7"/><line class="cls-1" x1="451.98" y1="742.02" x2="444.16" y2="705.24"/><line class="cls-1" x1="489.91" y1="731.92" x2="478.29" y2="696.16"/><line class="cls-1" x1="526.57" y1="717.91" x2="511.28" y2="683.56"/><line class="cls-1" x1="594.53" y1="678.82" x2="572.43" y2="648.4"/><line class="cls-1" x1="625.07" y1="654.16" x2="599.91" y2="626.22"/><line class="cls-1" x1="652.87" y1="626.45" x2="624.92" y2="601.29"/><line class="cls-1" x1="677.61" y1="595.99" x2="647.2" y2="573.89"/><line class="cls-1" x1="716.92" y1="528.16" x2="682.57" y2="512.86"/><line class="cls-1" x1="731.04" y1="491.53" x2="695.28" y2="479.91"/><line class="cls-1" x1="741.26" y1="453.64" x2="704.48" y2="445.82"/><line class="cls-1" x1="747.46" y1="414.88" x2="710.06" y2="410.95"/><line class="cls-1" x1="747.58" y1="336.48" x2="710.18" y2="340.41"/><line class="cls-1" x1="741.5" y1="297.71" x2="704.72" y2="305.52"/><line class="cls-1" x1="731.4" y1="259.78" x2="695.64" y2="271.4"/><line class="cls-1" x1="717.39" y1="223.11" x2="683.04" y2="238.41"/><line class="cls-1" x1="678.3" y1="155.16" x2="647.88" y2="177.26"/><line class="cls-1" x1="653.64" y1="124.62" x2="625.7" y2="149.78"/><line class="cls-1" x1="625.93" y1="96.82" x2="600.77" y2="124.76"/><line class="cls-1" x1="595.47" y1="72.07" x2="573.37" y2="102.49"/><line class="cls-1" x1="527.64" y1="32.77" x2="512.34" y2="67.12"/><line class="cls-1" x1="491.01" y1="18.65" x2="479.39" y2="54.41"/><line class="cls-1" x1="453.12" y1="8.43" x2="445.3" y2="45.21"/><line class="cls-1" x1="414.36" y1="2.23" x2="410.43" y2="39.62"/><line class="cls-1" x1="187.29" y1="50.7" x2="224.89" y2="115.83"/><line class="cls-1" x1="50.18" y1="187.81" x2="115.31" y2="225.41"/><text class="cls-2" transform="translate(349.96 130.57)">12</text><text class="cls-2" transform="translate(493.83 168.56)">1</text><text class="cls-2" transform="translate(591.11 264.48)">2</text><text class="cls-2" transform="translate(626.93 394.8)">3</text><text class="cls-2" transform="translate(591.11 519.45)">4</text><text class="cls-2" transform="translate(497.81 622.96)">5</text><text class="cls-2" transform="translate(359.32 654.74)">6</text><text class="cls-2" transform="translate(229.18 622.96)">7</text><text class="cls-2" transform="translate(131.7 520.51)">8</text><text class="cls-2" transform="translate(98.66 388.38)">9</text><text class="cls-2" transform="translate(116.06 263.6)">10</text><text class="cls-2" transform="translate(217.24 163.5)"><tspan class="cls-3">1</tspan><tspan x="24.36" y="0">1</tspan></text></svg>